# xmcd
#
# Track frame offsets:
#	150
#	16207
#	40355
#	51182
#	67715
#	88660
#	119322
#	138062
#	155957
#	174002
#	195175
#
# Disc length: 2859 seconds
# Revision: 7
# Processed by: cddbd v1.5.2PL0 Copyright (c) Steve Scherf et al.
# Submitted via: dBpowerAMP V12.0
#
DISCID=810b290b
DTITLE=Stevie Ray Vaughan and Double Trouble - Greatest Hits
DYEAR=1995
DGENRE=Blues
TTITLE0=Taxman
TTITLE1=Texas Flood
TTITLE2=The House Is Rockin'
TTITLE3=Pride And Joy
TTITLE4=Tightrope
TTITLE5=Little Wing
TTITLE6=Crossfire
TTITLE7=Change It
TTITLE8=Cold Shot
TTITLE9=Couldn't Stand The Weather
TTITLE10=Life Without You
EXTD=
EXTT0=
EXTT1=
EXTT2=
EXTT3=
EXTT4=
EXTT5=
EXTT6=
EXTT7=
EXTT8=
EXTT9=
EXTT10=
PLAYORDER=
